<mxfile host="app.diagrams.net" agent="Mozilla/5.0 (Windows NT 10.0; Win64; x64) AppleWebKit/537.36 (KHTML, like Gecko) Chrome/132.0.0.0 Safari/537.36" version="26.1.2">
  <diagram name="Página-1" id="UlU2s7YNimyuka40gokZ">
    <mxGraphModel dx="1434" dy="780" grid="1" gridSize="10" guides="1" tooltips="1" connect="1" arrows="1" fold="1" page="1" pageScale="1" pageWidth="827" pageHeight="1169" math="0" shadow="0">
      <root>
        <mxCell id="0" />
        <mxCell id="1" parent="0" />
        <mxCell id="2xaDJ4O4OaGNq-fzpD8u-19" value="" style="edgeStyle=orthogonalEdgeStyle;rounded=0;orthogonalLoop=1;jettySize=auto;html=1;" edge="1" parent="1" source="2xaDJ4O4OaGNq-fzpD8u-1" target="2xaDJ4O4OaGNq-fzpD8u-18">
          <mxGeometry relative="1" as="geometry" />
        </mxCell>
        <mxCell id="2xaDJ4O4OaGNq-fzpD8u-91" style="edgeStyle=orthogonalEdgeStyle;rounded=0;orthogonalLoop=1;jettySize=auto;html=1;entryX=0;entryY=0.5;entryDx=0;entryDy=0;" edge="1" parent="1" source="2xaDJ4O4OaGNq-fzpD8u-1" target="2xaDJ4O4OaGNq-fzpD8u-17">
          <mxGeometry relative="1" as="geometry" />
        </mxCell>
        <mxCell id="2xaDJ4O4OaGNq-fzpD8u-1" value="&lt;font style=&quot;font-size: 12px;&quot;&gt;Usuarios&lt;/font&gt;" style="rounded=0;whiteSpace=wrap;html=1;" vertex="1" parent="1">
          <mxGeometry x="60" y="140" width="120" height="60" as="geometry" />
        </mxCell>
        <mxCell id="2xaDJ4O4OaGNq-fzpD8u-3" value="Artículos" style="rounded=0;whiteSpace=wrap;html=1;" vertex="1" parent="1">
          <mxGeometry x="640" y="140" width="120" height="60" as="geometry" />
        </mxCell>
        <mxCell id="2xaDJ4O4OaGNq-fzpD8u-27" value="" style="edgeStyle=orthogonalEdgeStyle;rounded=0;orthogonalLoop=1;jettySize=auto;html=1;" edge="1" parent="1" source="2xaDJ4O4OaGNq-fzpD8u-17" target="2xaDJ4O4OaGNq-fzpD8u-26">
          <mxGeometry relative="1" as="geometry" />
        </mxCell>
        <mxCell id="2xaDJ4O4OaGNq-fzpD8u-29" value="" style="edgeStyle=orthogonalEdgeStyle;rounded=0;orthogonalLoop=1;jettySize=auto;html=1;" edge="1" parent="1" source="2xaDJ4O4OaGNq-fzpD8u-17" target="2xaDJ4O4OaGNq-fzpD8u-28">
          <mxGeometry relative="1" as="geometry" />
        </mxCell>
        <mxCell id="2xaDJ4O4OaGNq-fzpD8u-92" style="edgeStyle=orthogonalEdgeStyle;rounded=0;orthogonalLoop=1;jettySize=auto;html=1;entryX=0;entryY=0.5;entryDx=0;entryDy=0;" edge="1" parent="1" source="2xaDJ4O4OaGNq-fzpD8u-17" target="2xaDJ4O4OaGNq-fzpD8u-3">
          <mxGeometry relative="1" as="geometry" />
        </mxCell>
        <mxCell id="2xaDJ4O4OaGNq-fzpD8u-17" value="Comentarios" style="ellipse;whiteSpace=wrap;html=1;" vertex="1" parent="1">
          <mxGeometry x="330" y="130" width="120" height="80" as="geometry" />
        </mxCell>
        <mxCell id="2xaDJ4O4OaGNq-fzpD8u-21" value="" style="edgeStyle=orthogonalEdgeStyle;rounded=0;orthogonalLoop=1;jettySize=auto;html=1;" edge="1" parent="1" source="2xaDJ4O4OaGNq-fzpD8u-18" target="2xaDJ4O4OaGNq-fzpD8u-20">
          <mxGeometry relative="1" as="geometry" />
        </mxCell>
        <mxCell id="2xaDJ4O4OaGNq-fzpD8u-31" value="" style="edgeStyle=orthogonalEdgeStyle;rounded=0;orthogonalLoop=1;jettySize=auto;html=1;" edge="1" parent="1" source="2xaDJ4O4OaGNq-fzpD8u-18" target="2xaDJ4O4OaGNq-fzpD8u-26">
          <mxGeometry relative="1" as="geometry" />
        </mxCell>
        <mxCell id="2xaDJ4O4OaGNq-fzpD8u-18" value="ID usuario" style="rhombus;whiteSpace=wrap;html=1;rounded=0;" vertex="1" parent="1">
          <mxGeometry x="80" y="270" width="80" height="80" as="geometry" />
        </mxCell>
        <mxCell id="2xaDJ4O4OaGNq-fzpD8u-23" value="" style="edgeStyle=orthogonalEdgeStyle;rounded=0;orthogonalLoop=1;jettySize=auto;html=1;" edge="1" parent="1" source="2xaDJ4O4OaGNq-fzpD8u-20" target="2xaDJ4O4OaGNq-fzpD8u-22">
          <mxGeometry relative="1" as="geometry" />
        </mxCell>
        <mxCell id="2xaDJ4O4OaGNq-fzpD8u-20" value="Nombre" style="rhombus;whiteSpace=wrap;html=1;rounded=0;" vertex="1" parent="1">
          <mxGeometry x="80" y="430" width="80" height="80" as="geometry" />
        </mxCell>
        <mxCell id="2xaDJ4O4OaGNq-fzpD8u-22" value="Contraseña" style="rhombus;whiteSpace=wrap;html=1;rounded=0;" vertex="1" parent="1">
          <mxGeometry x="80" y="590" width="80" height="80" as="geometry" />
        </mxCell>
        <mxCell id="2xaDJ4O4OaGNq-fzpD8u-26" value="ID usuario" style="rhombus;whiteSpace=wrap;html=1;" vertex="1" parent="1">
          <mxGeometry x="250" y="270" width="80" height="80" as="geometry" />
        </mxCell>
        <mxCell id="2xaDJ4O4OaGNq-fzpD8u-28" value="ID comentario" style="rhombus;whiteSpace=wrap;html=1;" vertex="1" parent="1">
          <mxGeometry x="430" y="270" width="90" height="80" as="geometry" />
        </mxCell>
        <mxCell id="2xaDJ4O4OaGNq-fzpD8u-48" value="" style="edgeStyle=orthogonalEdgeStyle;rounded=0;orthogonalLoop=1;jettySize=auto;html=1;" edge="1" parent="1" source="2xaDJ4O4OaGNq-fzpD8u-34">
          <mxGeometry relative="1" as="geometry">
            <mxPoint x="290" y="590" as="targetPoint" />
          </mxGeometry>
        </mxCell>
        <mxCell id="2xaDJ4O4OaGNq-fzpD8u-70" style="edgeStyle=orthogonalEdgeStyle;rounded=0;orthogonalLoop=1;jettySize=auto;html=1;entryX=0.5;entryY=0;entryDx=0;entryDy=0;" edge="1" parent="1" source="2xaDJ4O4OaGNq-fzpD8u-34" target="2xaDJ4O4OaGNq-fzpD8u-68">
          <mxGeometry relative="1" as="geometry" />
        </mxCell>
        <mxCell id="2xaDJ4O4OaGNq-fzpD8u-34" value="Fecha del comentario" style="rhombus;whiteSpace=wrap;html=1;" vertex="1" parent="1">
          <mxGeometry x="340" y="480" width="80" height="80" as="geometry" />
        </mxCell>
        <mxCell id="2xaDJ4O4OaGNq-fzpD8u-36" value="Texto comentario" style="rhombus;whiteSpace=wrap;html=1;" vertex="1" parent="1">
          <mxGeometry x="340" y="360" width="80" height="90" as="geometry" />
        </mxCell>
        <mxCell id="2xaDJ4O4OaGNq-fzpD8u-40" value="" style="endArrow=none;html=1;rounded=0;exitX=0.5;exitY=0;exitDx=0;exitDy=0;entryX=0;entryY=0.5;entryDx=0;entryDy=0;" edge="1" parent="1" source="2xaDJ4O4OaGNq-fzpD8u-36" target="2xaDJ4O4OaGNq-fzpD8u-28">
          <mxGeometry width="50" height="50" relative="1" as="geometry">
            <mxPoint x="370" y="370" as="sourcePoint" />
            <mxPoint x="410" y="320" as="targetPoint" />
          </mxGeometry>
        </mxCell>
        <mxCell id="2xaDJ4O4OaGNq-fzpD8u-41" value="" style="endArrow=none;html=1;rounded=0;exitX=1;exitY=0.5;exitDx=0;exitDy=0;entryX=0.5;entryY=0;entryDx=0;entryDy=0;" edge="1" parent="1" source="2xaDJ4O4OaGNq-fzpD8u-26" target="2xaDJ4O4OaGNq-fzpD8u-36">
          <mxGeometry width="50" height="50" relative="1" as="geometry">
            <mxPoint x="300" y="450" as="sourcePoint" />
            <mxPoint x="380" y="370" as="targetPoint" />
          </mxGeometry>
        </mxCell>
        <mxCell id="2xaDJ4O4OaGNq-fzpD8u-42" value="" style="endArrow=none;html=1;rounded=0;entryX=0.5;entryY=0;entryDx=0;entryDy=0;exitX=0.5;exitY=1;exitDx=0;exitDy=0;" edge="1" parent="1" source="2xaDJ4O4OaGNq-fzpD8u-36" target="2xaDJ4O4OaGNq-fzpD8u-34">
          <mxGeometry width="50" height="50" relative="1" as="geometry">
            <mxPoint x="300" y="650" as="sourcePoint" />
            <mxPoint x="350" y="600" as="targetPoint" />
          </mxGeometry>
        </mxCell>
        <mxCell id="2xaDJ4O4OaGNq-fzpD8u-43" value="ID articulo" style="rhombus;whiteSpace=wrap;html=1;" vertex="1" parent="1">
          <mxGeometry x="660" y="270" width="80" height="80" as="geometry" />
        </mxCell>
        <mxCell id="2xaDJ4O4OaGNq-fzpD8u-44" value="Contenido" style="rhombus;whiteSpace=wrap;html=1;" vertex="1" parent="1">
          <mxGeometry x="660" y="410" width="80" height="80" as="geometry" />
        </mxCell>
        <mxCell id="2xaDJ4O4OaGNq-fzpD8u-45" value="" style="endArrow=none;html=1;rounded=0;entryX=0.5;entryY=1;entryDx=0;entryDy=0;exitX=0.5;exitY=0;exitDx=0;exitDy=0;" edge="1" parent="1" source="2xaDJ4O4OaGNq-fzpD8u-43" target="2xaDJ4O4OaGNq-fzpD8u-3">
          <mxGeometry width="50" height="50" relative="1" as="geometry">
            <mxPoint x="530" y="450" as="sourcePoint" />
            <mxPoint x="580" y="400" as="targetPoint" />
          </mxGeometry>
        </mxCell>
        <mxCell id="2xaDJ4O4OaGNq-fzpD8u-46" value="" style="endArrow=none;html=1;rounded=0;entryX=0.5;entryY=1;entryDx=0;entryDy=0;exitX=0.5;exitY=0;exitDx=0;exitDy=0;" edge="1" parent="1" source="2xaDJ4O4OaGNq-fzpD8u-44" target="2xaDJ4O4OaGNq-fzpD8u-43">
          <mxGeometry width="50" height="50" relative="1" as="geometry">
            <mxPoint x="530" y="450" as="sourcePoint" />
            <mxPoint x="580" y="400" as="targetPoint" />
          </mxGeometry>
        </mxCell>
        <mxCell id="2xaDJ4O4OaGNq-fzpD8u-50" value="" style="edgeStyle=orthogonalEdgeStyle;rounded=0;orthogonalLoop=1;jettySize=auto;html=1;exitX=0.5;exitY=1;exitDx=0;exitDy=0;" edge="1" parent="1" source="2xaDJ4O4OaGNq-fzpD8u-67" target="2xaDJ4O4OaGNq-fzpD8u-49">
          <mxGeometry relative="1" as="geometry">
            <mxPoint x="290" y="670" as="sourcePoint" />
          </mxGeometry>
        </mxCell>
        <mxCell id="2xaDJ4O4OaGNq-fzpD8u-52" value="" style="edgeStyle=orthogonalEdgeStyle;rounded=0;orthogonalLoop=1;jettySize=auto;html=1;" edge="1" parent="1" source="2xaDJ4O4OaGNq-fzpD8u-49" target="2xaDJ4O4OaGNq-fzpD8u-51">
          <mxGeometry relative="1" as="geometry" />
        </mxCell>
        <mxCell id="2xaDJ4O4OaGNq-fzpD8u-49" value="Título" style="rhombus;whiteSpace=wrap;html=1;" vertex="1" parent="1">
          <mxGeometry x="250" y="710" width="80" height="80" as="geometry" />
        </mxCell>
        <mxCell id="2xaDJ4O4OaGNq-fzpD8u-54" value="" style="edgeStyle=orthogonalEdgeStyle;rounded=0;orthogonalLoop=1;jettySize=auto;html=1;" edge="1" parent="1" source="2xaDJ4O4OaGNq-fzpD8u-51" target="2xaDJ4O4OaGNq-fzpD8u-53">
          <mxGeometry relative="1" as="geometry" />
        </mxCell>
        <mxCell id="2xaDJ4O4OaGNq-fzpD8u-51" value="Descripcion" style="rhombus;whiteSpace=wrap;html=1;" vertex="1" parent="1">
          <mxGeometry x="250" y="830" width="80" height="80" as="geometry" />
        </mxCell>
        <mxCell id="2xaDJ4O4OaGNq-fzpD8u-56" value="" style="edgeStyle=orthogonalEdgeStyle;rounded=0;orthogonalLoop=1;jettySize=auto;html=1;" edge="1" parent="1" source="2xaDJ4O4OaGNq-fzpD8u-53" target="2xaDJ4O4OaGNq-fzpD8u-55">
          <mxGeometry relative="1" as="geometry" />
        </mxCell>
        <mxCell id="2xaDJ4O4OaGNq-fzpD8u-58" value="" style="edgeStyle=orthogonalEdgeStyle;rounded=0;orthogonalLoop=1;jettySize=auto;html=1;" edge="1" parent="1" source="2xaDJ4O4OaGNq-fzpD8u-53" target="2xaDJ4O4OaGNq-fzpD8u-57">
          <mxGeometry relative="1" as="geometry" />
        </mxCell>
        <mxCell id="2xaDJ4O4OaGNq-fzpD8u-60" value="" style="edgeStyle=orthogonalEdgeStyle;rounded=0;orthogonalLoop=1;jettySize=auto;html=1;" edge="1" parent="1" source="2xaDJ4O4OaGNq-fzpD8u-53" target="2xaDJ4O4OaGNq-fzpD8u-59">
          <mxGeometry relative="1" as="geometry" />
        </mxCell>
        <mxCell id="2xaDJ4O4OaGNq-fzpD8u-61" value="" style="edgeStyle=orthogonalEdgeStyle;rounded=0;orthogonalLoop=1;jettySize=auto;html=1;" edge="1" parent="1" source="2xaDJ4O4OaGNq-fzpD8u-53" target="2xaDJ4O4OaGNq-fzpD8u-59">
          <mxGeometry relative="1" as="geometry" />
        </mxCell>
        <mxCell id="2xaDJ4O4OaGNq-fzpD8u-62" value="" style="edgeStyle=orthogonalEdgeStyle;rounded=0;orthogonalLoop=1;jettySize=auto;html=1;" edge="1" parent="1" source="2xaDJ4O4OaGNq-fzpD8u-53" target="2xaDJ4O4OaGNq-fzpD8u-59">
          <mxGeometry relative="1" as="geometry" />
        </mxCell>
        <mxCell id="2xaDJ4O4OaGNq-fzpD8u-64" value="" style="edgeStyle=orthogonalEdgeStyle;rounded=0;orthogonalLoop=1;jettySize=auto;html=1;" edge="1" parent="1" source="2xaDJ4O4OaGNq-fzpD8u-53" target="2xaDJ4O4OaGNq-fzpD8u-63">
          <mxGeometry relative="1" as="geometry" />
        </mxCell>
        <mxCell id="2xaDJ4O4OaGNq-fzpD8u-53" value="Recursos" style="whiteSpace=wrap;html=1;" vertex="1" parent="1">
          <mxGeometry x="230" y="940" width="120" height="60" as="geometry" />
        </mxCell>
        <mxCell id="2xaDJ4O4OaGNq-fzpD8u-55" value="ID recurso" style="rhombus;whiteSpace=wrap;html=1;" vertex="1" parent="1">
          <mxGeometry x="90" y="1060" width="80" height="80" as="geometry" />
        </mxCell>
        <mxCell id="2xaDJ4O4OaGNq-fzpD8u-57" value="Titulo" style="rhombus;whiteSpace=wrap;html=1;" vertex="1" parent="1">
          <mxGeometry x="190" y="1060" width="80" height="80" as="geometry" />
        </mxCell>
        <mxCell id="2xaDJ4O4OaGNq-fzpD8u-59" value="Descripcion" style="rhombus;whiteSpace=wrap;html=1;" vertex="1" parent="1">
          <mxGeometry x="310" y="1060" width="80" height="80" as="geometry" />
        </mxCell>
        <mxCell id="2xaDJ4O4OaGNq-fzpD8u-63" value="Enlace descarga" style="rhombus;whiteSpace=wrap;html=1;" vertex="1" parent="1">
          <mxGeometry x="414" y="1060" width="80" height="80" as="geometry" />
        </mxCell>
        <mxCell id="2xaDJ4O4OaGNq-fzpD8u-69" value="" style="edgeStyle=orthogonalEdgeStyle;rounded=0;orthogonalLoop=1;jettySize=auto;html=1;" edge="1" parent="1" source="2xaDJ4O4OaGNq-fzpD8u-67" target="2xaDJ4O4OaGNq-fzpD8u-68">
          <mxGeometry relative="1" as="geometry" />
        </mxCell>
        <mxCell id="2xaDJ4O4OaGNq-fzpD8u-67" value="Cursos" style="rounded=0;whiteSpace=wrap;html=1;" vertex="1" parent="1">
          <mxGeometry x="230" y="590" width="120" height="60" as="geometry" />
        </mxCell>
        <mxCell id="2xaDJ4O4OaGNq-fzpD8u-72" value="" style="edgeStyle=orthogonalEdgeStyle;rounded=0;orthogonalLoop=1;jettySize=auto;html=1;" edge="1" parent="1" source="2xaDJ4O4OaGNq-fzpD8u-68" target="2xaDJ4O4OaGNq-fzpD8u-71">
          <mxGeometry relative="1" as="geometry" />
        </mxCell>
        <mxCell id="2xaDJ4O4OaGNq-fzpD8u-68" value="Categoría curso" style="ellipse;whiteSpace=wrap;html=1;rounded=0;" vertex="1" parent="1">
          <mxGeometry x="440" y="580" width="80" height="80" as="geometry" />
        </mxCell>
        <mxCell id="2xaDJ4O4OaGNq-fzpD8u-74" value="" style="edgeStyle=orthogonalEdgeStyle;rounded=0;orthogonalLoop=1;jettySize=auto;html=1;" edge="1" parent="1" source="2xaDJ4O4OaGNq-fzpD8u-71" target="2xaDJ4O4OaGNq-fzpD8u-73">
          <mxGeometry relative="1" as="geometry" />
        </mxCell>
        <mxCell id="2xaDJ4O4OaGNq-fzpD8u-71" value="ID curso" style="rhombus;whiteSpace=wrap;html=1;rounded=0;" vertex="1" parent="1">
          <mxGeometry x="440" y="710" width="80" height="80" as="geometry" />
        </mxCell>
        <mxCell id="2xaDJ4O4OaGNq-fzpD8u-85" value="" style="edgeStyle=orthogonalEdgeStyle;rounded=0;orthogonalLoop=1;jettySize=auto;html=1;" edge="1" parent="1" source="2xaDJ4O4OaGNq-fzpD8u-73" target="2xaDJ4O4OaGNq-fzpD8u-84">
          <mxGeometry relative="1" as="geometry" />
        </mxCell>
        <mxCell id="2xaDJ4O4OaGNq-fzpD8u-73" value="ID categoria" style="rhombus;whiteSpace=wrap;html=1;rounded=0;" vertex="1" parent="1">
          <mxGeometry x="440" y="820" width="80" height="80" as="geometry" />
        </mxCell>
        <mxCell id="2xaDJ4O4OaGNq-fzpD8u-87" value="" style="edgeStyle=orthogonalEdgeStyle;rounded=0;orthogonalLoop=1;jettySize=auto;html=1;" edge="1" parent="1" source="2xaDJ4O4OaGNq-fzpD8u-84" target="2xaDJ4O4OaGNq-fzpD8u-86">
          <mxGeometry relative="1" as="geometry" />
        </mxCell>
        <mxCell id="2xaDJ4O4OaGNq-fzpD8u-84" value="Categoría curso" style="whiteSpace=wrap;html=1;rounded=0;" vertex="1" parent="1">
          <mxGeometry x="590" y="850" width="120" height="60" as="geometry" />
        </mxCell>
        <mxCell id="2xaDJ4O4OaGNq-fzpD8u-88" style="edgeStyle=orthogonalEdgeStyle;rounded=0;orthogonalLoop=1;jettySize=auto;html=1;entryX=1;entryY=0.5;entryDx=0;entryDy=0;" edge="1" parent="1" source="2xaDJ4O4OaGNq-fzpD8u-86" target="2xaDJ4O4OaGNq-fzpD8u-53">
          <mxGeometry relative="1" as="geometry" />
        </mxCell>
        <mxCell id="2xaDJ4O4OaGNq-fzpD8u-90" value="" style="edgeStyle=orthogonalEdgeStyle;rounded=0;orthogonalLoop=1;jettySize=auto;html=1;" edge="1" parent="1" source="2xaDJ4O4OaGNq-fzpD8u-86" target="2xaDJ4O4OaGNq-fzpD8u-89">
          <mxGeometry relative="1" as="geometry" />
        </mxCell>
        <mxCell id="2xaDJ4O4OaGNq-fzpD8u-86" value="Nombre&amp;nbsp;" style="rhombus;whiteSpace=wrap;html=1;rounded=0;" vertex="1" parent="1">
          <mxGeometry x="610" y="930" width="80" height="80" as="geometry" />
        </mxCell>
        <mxCell id="2xaDJ4O4OaGNq-fzpD8u-89" value="Contenido" style="rhombus;whiteSpace=wrap;html=1;rounded=0;" vertex="1" parent="1">
          <mxGeometry x="610" y="1050" width="80" height="80" as="geometry" />
        </mxCell>
      </root>
    </mxGraphModel>
  </diagram>
</mxfile>
